<svg xmlns="http://www.w3.org/2000/svg" xmlns:xlink="http://www.w3.org/1999/xlink" width="3000" zoomAndPan="magnify" viewBox="0 0 2250 2250.000011" height="3000" preserveAspectRatio="xMidYMid meet" version="1.0"><defs><g/><clipPath id="3769773477"><path d="M 0.5 0 L 2249.5 0 L 2249.5 2249 L 0.5 2249 Z M 0.5 0 " clip-rule="nonzero"/></clipPath><clipPath id="48bf5ca19d"><path d="M 305.007812 380.132812 L 1662 380.132812 L 1662 1281 L 305.007812 1281 Z M 305.007812 380.132812 " clip-rule="nonzero"/></clipPath><clipPath id="db2e4aec59"><path d="M 958 1327 L 1098 1327 L 1098 1466.398438 L 958 1466.398438 Z M 958 1327 " clip-rule="nonzero"/></clipPath><clipPath id="02fa469396"><path d="M 1407 1327 L 1547 1327 L 1547 1466.398438 L 1407 1466.398438 Z M 1407 1327 " clip-rule="nonzero"/></clipPath><clipPath id="ca761d0119"><rect x="0" width="1651" y="0" height="312"/></clipPath><clipPath id="7863535e1b"><path d="M 1683 1606 L 1807 1606 L 1807 1784 L 1683 1784 Z M 1683 1606 " clip-rule="nonzero"/></clipPath><clipPath id="635ba7f562"><path d="M 1683.839844 1770.386719 L 1786.445312 1606.199219 L 1806.667969 1618.835938 L 1704.0625 1783.023438 Z M 1683.839844 1770.386719 " clip-rule="nonzero"/></clipPath><clipPath id="80f7589413"><path d="M 0.832031 0.0859375 L 123.898438 0.0859375 L 123.898438 177.128906 L 0.832031 177.128906 Z M 0.832031 0.0859375 " clip-rule="nonzero"/></clipPath><clipPath id="851b848cd0"><path d="M 0.839844 164.386719 L 103.445312 0.199219 L 123.667969 12.835938 L 21.0625 177.023438 Z M 0.839844 164.386719 " clip-rule="nonzero"/></clipPath><clipPath id="b56c5258f1"><rect x="0" width="124" y="0" height="178"/></clipPath><clipPath id="7614a13b99"><rect x="0" width="1627" y="0" height="96"/></clipPath><clipPath id="779b249451"><path d="M 1288 528 L 1776 528 L 1776 842 L 1288 842 Z M 1288 528 " clip-rule="nonzero"/></clipPath><clipPath id="ca8cf74c76"><path d="M 1288.464844 603.570312 L 1735.359375 528.847656 L 1775.207031 767.167969 L 1328.316406 841.890625 Z M 1288.464844 603.570312 " clip-rule="nonzero"/></clipPath><clipPath id="205bc76937"><path d="M 0.246094 0.726562 L 487.230469 0.726562 L 487.230469 314 L 0.246094 314 Z M 0.246094 0.726562 " clip-rule="nonzero"/></clipPath><clipPath id="334f9bff9a"><path d="M 0.464844 75.570312 L 447.359375 0.847656 L 487.207031 239.167969 L 40.316406 313.890625 Z M 0.464844 75.570312 " clip-rule="nonzero"/></clipPath><clipPath id="a3307a958c"><rect x="0" width="488" y="0" height="314"/></clipPath><clipPath id="c5a18cbfff"><path d="M 1287 994 L 1746 994 L 1746 1130 L 1287 1130 Z M 1287 994 " clip-rule="nonzero"/></clipPath><clipPath id="569629952c"><path d="M 1745.714844 1109.609375 L 1292.757812 1129.996094 L 1287.5625 1014.59375 L 1740.523438 994.207031 Z M 1745.714844 1109.609375 " clip-rule="nonzero"/></clipPath><clipPath id="2e8571761c"><path d="M 0.527344 0.117188 L 458.722656 0.117188 L 458.722656 136 L 0.527344 136 Z M 0.527344 0.117188 " clip-rule="nonzero"/></clipPath><clipPath id="238130272b"><path d="M 458.714844 115.609375 L 5.757812 135.996094 L 0.5625 20.59375 L 453.523438 0.207031 Z M 458.714844 115.609375 " clip-rule="nonzero"/></clipPath><clipPath id="b80ab69136"><rect x="0" width="459" y="0" height="136"/></clipPath><clipPath id="87d7a2a9de"><path d="M 1521 889 L 1770 889 L 1770 1090 L 1521 1090 Z M 1521 889 " clip-rule="nonzero"/></clipPath><clipPath id="1e253f9989"><path d="M 1561.042969 889.175781 L 1769.898438 946.429688 L 1730.566406 1089.914062 L 1521.707031 1032.65625 Z M 1561.042969 889.175781 " clip-rule="nonzero"/></clipPath><clipPath id="e23ff3c70d"><path d="M 0.664062 0.046875 L 248.953125 0.046875 L 248.953125 201 L 0.664062 201 Z M 0.664062 0.046875 " clip-rule="nonzero"/></clipPath><clipPath id="ec1440f2c0"><path d="M 40.042969 0.175781 L 248.898438 57.429688 L 209.566406 200.914062 L 0.707031 143.65625 Z M 40.042969 0.175781 " clip-rule="nonzero"/></clipPath><clipPath id="af105b5c81"><rect x="0" width="249" y="0" height="201"/></clipPath><clipPath id="77bef7becd"><path d="M 1297 934 L 1538 934 L 1538 1104 L 1297 1104 Z M 1297 934 " clip-rule="nonzero"/></clipPath><clipPath id="d596fdb5c6"><path d="M 1328.464844 934.875 L 1537.324219 992.132812 L 1506.78125 1103.542969 L 1297.925781 1046.289062 Z M 1328.464844 934.875 " clip-rule="nonzero"/></clipPath><clipPath id="09a44ccc32"><path d="M 0.84375 0.863281 L 240.496094 0.863281 L 240.496094 169.75 L 0.84375 169.75 Z M 0.84375 0.863281 " clip-rule="nonzero"/></clipPath><clipPath id="2602aa917b"><path d="M 31.464844 0.875 L 240.324219 58.132812 L 209.78125 169.542969 L 0.925781 112.289062 Z M 31.464844 0.875 " clip-rule="nonzero"/></clipPath><clipPath id="6b4a35cc8d"><rect x="0" width="241" y="0" height="170"/></clipPath><clipPath id="e08dcc5342"><path d="M 1307 685 L 1702 685 L 1702 983 L 1307 983 Z M 1307 685 " clip-rule="nonzero"/></clipPath><clipPath id="deafdcefbb"><path d="M 1370.039062 685.371094 L 1701.441406 795.101562 L 1639.347656 982.625 L 1307.945312 872.894531 Z M 1370.039062 685.371094 " clip-rule="nonzero"/></clipPath><clipPath id="e40ab55a40"><path d="M 0.917969 0.136719 L 394.582031 0.136719 L 394.582031 297.84375 L 0.917969 297.84375 Z M 0.917969 0.136719 " clip-rule="nonzero"/></clipPath><clipPath id="756892160d"><path d="M 63.039062 0.371094 L 394.441406 110.101562 L 332.347656 297.625 L 0.945312 187.894531 Z M 63.039062 0.371094 " clip-rule="nonzero"/></clipPath><clipPath id="b6ff422684"><rect x="0" width="395" y="0" height="298"/></clipPath><clipPath id="fe824d74c0"><path d="M 1436 780 L 1713 780 L 1713 955 L 1436 955 Z M 1436 780 " clip-rule="nonzero"/></clipPath><clipPath id="a125607fd6"><path d="M 1436.101562 930.636719 L 1698.632812 780.730469 L 1712.242188 804.566406 L 1449.714844 954.472656 Z M 1436.101562 930.636719 " clip-rule="nonzero"/></clipPath><clipPath id="096e1ba778"><path d="M 0.0234375 0.613281 L 276.378906 0.613281 L 276.378906 174.535156 L 0.0234375 174.535156 Z M 0.0234375 0.613281 " clip-rule="nonzero"/></clipPath><clipPath id="37950b4335"><path d="M 0.101562 150.636719 L 262.632812 0.730469 L 276.242188 24.566406 L 13.714844 174.472656 Z M 0.101562 150.636719 " clip-rule="nonzero"/></clipPath><clipPath id="4a7f522d11"><rect x="0" width="277" y="0" height="175"/></clipPath><clipPath id="da678ada02"><path d="M 1338 661 L 1471 661 L 1471 955 L 1338 955 Z M 1338 661 " clip-rule="nonzero"/></clipPath><clipPath id="21f9ee93d3"><path d="M 1444.582031 954.46875 L 1338.507812 671.375 L 1364.210938 661.742188 L 1470.285156 944.835938 Z M 1444.582031 954.46875 " clip-rule="nonzero"/></clipPath><clipPath id="7a0785b2e2"><path d="M 0.386719 0.625 L 132.328125 0.625 L 132.328125 293.535156 L 0.386719 293.535156 Z M 0.386719 0.625 " clip-rule="nonzero"/></clipPath><clipPath id="03712abdfe"><path d="M 106.582031 293.46875 L 0.507812 10.375 L 26.210938 0.742188 L 132.285156 283.835938 Z M 106.582031 293.46875 " clip-rule="nonzero"/></clipPath><clipPath id="a6ad8933f0"><rect x="0" width="133" y="0" height="294"/></clipPath><clipPath id="b964c81e8a"><path d="M 1314 600 L 1730 600 L 1730 953 L 1314 953 Z M 1314 600 " clip-rule="nonzero"/></clipPath><clipPath id="dd7d7f792c"><path d="M 1315.542969 599.40625 L 1731.355469 692.179688 L 1662.722656 999.785156 L 1246.910156 907.007812 Z M 1315.542969 599.40625 " clip-rule="nonzero"/></clipPath><clipPath id="db7009d90e"><path d="M 1450.386719 948.613281 L 1315.203125 606.957031 C 1314.554688 605.316406 1314.867188 603.449219 1316.011719 602.105469 C 1317.15625 600.765625 1318.953125 600.164062 1320.675781 600.550781 L 1725.613281 690.902344 C 1727.335938 691.285156 1728.703125 692.589844 1729.171875 694.292969 C 1729.640625 695.992188 1729.125 697.816406 1727.839844 699.023438 L 1460.25 950.8125 C 1458.773438 952.199219 1456.710938 952.765625 1454.734375 952.324219 C 1452.761719 951.882812 1451.132812 950.492188 1450.386719 948.613281 Z M 1450.386719 948.613281 " clip-rule="nonzero"/></clipPath><clipPath id="4b828a2b7f"><path d="M 0.394531 0 L 415.652344 0 L 415.652344 352.855469 L 0.394531 352.855469 Z M 0.394531 0 " clip-rule="nonzero"/></clipPath><clipPath id="d45232c54b"><path d="M 1.542969 -0.59375 L 417.355469 92.179688 L 348.722656 399.785156 L -67.089844 307.007812 Z M 1.542969 -0.59375 " clip-rule="nonzero"/></clipPath><clipPath id="ba7572564a"><path d="M 136.386719 348.613281 L 1.203125 6.957031 C 0.554688 5.316406 0.867188 3.449219 2.011719 2.105469 C 3.15625 0.765625 4.953125 0.164062 6.675781 0.550781 L 411.613281 90.902344 C 413.335938 91.285156 414.703125 92.589844 415.171875 94.292969 C 415.640625 95.992188 415.125 97.816406 413.839844 99.023438 L 146.25 350.8125 C 144.773438 352.199219 142.710938 352.765625 140.734375 352.324219 C 138.761719 351.882812 137.132812 350.492188 136.386719 348.613281 Z M 136.386719 348.613281 " clip-rule="nonzero"/></clipPath><clipPath id="4aae4ed287"><rect x="0" width="416" y="0" height="353"/></clipPath><clipPath id="8a23b91782"><path d="M 1421 519 L 1836 519 L 1836 872 L 1421 872 Z M 1421 519 " clip-rule="nonzero"/></clipPath><clipPath id="9443abb442"><path d="M 1422.117188 518.5625 L 1837.929688 611.339844 L 1769.296875 918.941406 L 1353.484375 826.167969 Z M 1422.117188 518.5625 " clip-rule="nonzero"/></clipPath><clipPath id="7f277b95a1"><path d="M 1556.964844 867.769531 L 1421.78125 526.113281 C 1421.132812 524.472656 1421.441406 522.605469 1422.589844 521.265625 C 1423.734375 519.921875 1425.527344 519.324219 1427.25 519.707031 L 1832.1875 610.058594 C 1833.910156 610.441406 1835.28125 611.746094 1835.75 613.449219 C 1836.214844 615.152344 1835.703125 616.972656 1834.417969 618.179688 L 1566.824219 869.96875 C 1565.351562 871.355469 1563.285156 871.921875 1561.3125 871.480469 C 1559.335938 871.042969 1557.707031 869.652344 1556.964844 867.769531 Z M 1556.964844 867.769531 " clip-rule="nonzero"/></clipPath><clipPath id="e4742b1b83"><path d="M 0 0.128906 L 415 0.128906 L 415 353 L 0 353 Z M 0 0.128906 " clip-rule="nonzero"/></clipPath><clipPath id="4a3f52c7ba"><path d="M 1.117188 -0.4375 L 416.929688 92.339844 L 348.296875 399.941406 L -67.515625 307.167969 Z M 1.117188 -0.4375 " clip-rule="nonzero"/></clipPath><clipPath id="2c3783fdbc"><path d="M 135.964844 348.769531 L 0.78125 7.113281 C 0.132812 5.472656 0.441406 3.605469 1.589844 2.265625 C 2.734375 0.921875 4.527344 0.324219 6.25 0.707031 L 411.1875 91.058594 C 412.910156 91.441406 414.28125 92.746094 414.75 94.449219 C 415.214844 96.152344 414.703125 97.972656 413.417969 99.179688 L 145.824219 350.96875 C 144.351562 352.355469 142.285156 352.921875 140.3125 352.480469 C 138.335938 352.042969 136.707031 350.652344 135.964844 348.769531 Z M 135.964844 348.769531 " clip-rule="nonzero"/></clipPath><clipPath id="0bf801f88f"><rect x="0" width="415" y="0" height="353"/></clipPath><clipPath id="53b15e8142"><path d="M 1649 742 L 1782 742 L 1782 972 L 1649 972 Z M 1649 742 " clip-rule="nonzero"/></clipPath><clipPath id="3800a96f76"><path d="M 1638.214844 956.242188 L 1717.253906 731.058594 L 1792.414062 757.441406 L 1713.375 982.625 Z M 1638.214844 956.242188 " clip-rule="nonzero"/></clipPath><clipPath id="e5d8fe8c9a"><path d="M 1651.40625 918.664062 L 1704.042969 768.703125 C 1707.539062 758.738281 1714.855469 750.566406 1724.375 745.992188 C 1733.894531 741.421875 1744.84375 740.816406 1754.8125 744.3125 C 1764.777344 747.8125 1772.945312 755.125 1777.519531 764.648438 C 1782.09375 774.167969 1782.699219 785.117188 1779.199219 795.085938 L 1726.5625 945.042969 C 1723.066406 955.011719 1715.75 963.179688 1706.230469 967.753906 C 1696.710938 972.328125 1685.761719 972.929688 1675.792969 969.433594 C 1665.828125 965.933594 1657.660156 958.621094 1653.085938 949.097656 C 1648.511719 939.578125 1647.90625 928.628906 1651.40625 918.664062 Z M 1651.40625 918.664062 " clip-rule="nonzero"/></clipPath><clipPath id="42bbc47acb"><path d="M 0 0 L 133 0 L 133 230 L 0 230 Z M 0 0 " clip-rule="nonzero"/></clipPath><clipPath id="6f8e7f9f4b"><path d="M -10.785156 214.242188 L 68.253906 -10.941406 L 143.414062 15.441406 L 64.375 240.625 Z M -10.785156 214.242188 " clip-rule="nonzero"/></clipPath><clipPath id="3e993cce6b"><path d="M 2.40625 176.664062 L 55.042969 26.703125 C 58.539062 16.738281 65.855469 8.566406 75.375 3.992188 C 84.894531 -0.578125 95.84375 -1.183594 105.8125 2.3125 C 115.777344 5.8125 123.945312 13.125 128.519531 22.648438 C 133.09375 32.167969 133.699219 43.117188 130.199219 53.085938 L 77.5625 203.042969 C 74.066406 213.011719 66.75 221.179688 57.230469 225.753906 C 47.710938 230.328125 36.761719 230.929688 26.792969 227.433594 C 16.828125 223.933594 8.660156 216.621094 4.085938 207.097656 C -0.488281 197.578125 -1.09375 186.628906 2.40625 176.664062 Z M 2.40625 176.664062 " clip-rule="nonzero"/></clipPath><clipPath id="c57438654c"><rect x="0" width="133" y="0" height="230"/></clipPath><clipPath id="426c8d4991"><path d="M 1345 702 L 1693 702 L 1693 1007 L 1345 1007 Z M 1345 702 " clip-rule="nonzero"/></clipPath><clipPath id="6c954564cf"><path d="M 1354.273438 694.804688 L 1700.785156 772.117188 L 1640.019531 1044.464844 L 1293.507812 967.148438 Z M 1354.273438 694.804688 " clip-rule="nonzero"/></clipPath><clipPath id="a8564a3fb9"><path d="M 1431.632812 974.804688 L 1348.289062 757.476562 C 1342.984375 743.640625 1345.714844 728.003906 1355.398438 716.785156 C 1365.082031 705.566406 1380.152344 700.578125 1394.617188 703.804688 L 1661.226562 763.292969 C 1675.691406 766.519531 1687.210938 777.4375 1691.207031 791.710938 C 1695.203125 805.980469 1691.027344 821.292969 1680.34375 831.566406 L 1512.523438 992.851562 C 1500.507812 1004.402344 1483.503906 1009.164062 1467.234375 1005.535156 C 1450.96875 1001.90625 1437.597656 990.367188 1431.632812 974.804688 Z M 1431.632812 974.804688 " clip-rule="nonzero"/></clipPath><clipPath id="e2e4901e09"><path d="M 0 0 L 348 0 L 348 305 L 0 305 Z M 0 0 " clip-rule="nonzero"/></clipPath><clipPath id="eded8fd930"><path d="M 9.273438 -7.195312 L 355.785156 70.117188 L 295.019531 342.464844 L -51.492188 265.148438 Z M 9.273438 -7.195312 " clip-rule="nonzero"/></clipPath><clipPath id="95bea1718a"><path d="M 86.632812 272.804688 L 3.289062 55.476562 C -2.015625 41.640625 0.714844 26.003906 10.398438 14.785156 C 20.082031 3.566406 35.152344 -1.421875 49.617188 1.804688 L 316.226562 61.292969 C 330.691406 64.519531 342.210938 75.4375 346.207031 89.710938 C 350.203125 103.980469 346.027344 119.292969 335.34375 129.566406 L 167.523438 290.851562 C 155.507812 302.402344 138.503906 307.164062 122.234375 303.535156 C 105.96875 299.90625 92.597656 288.367188 86.632812 272.804688 Z M 86.632812 272.804688 " clip-rule="nonzero"/></clipPath><clipPath id="b7f425eea6"><rect x="0" width="348" y="0" height="305"/></clipPath><clipPath id="16e8b395f7"><path d="M 1063 1063 L 1219 1063 L 1219 1113 L 1063 1113 Z M 1063 1063 " clip-rule="nonzero"/></clipPath><clipPath id="7d9a5fed90"><path d="M 1062.277344 1108.410156 L 1063.75 1062.3125 L 1219.324219 1067.289062 L 1217.847656 1113.382812 Z M 1062.277344 1108.410156 " clip-rule="nonzero"/></clipPath><clipPath id="bf2445c5eb"><path d="M 1063.011719 1085.359375 C 1063.421875 1072.632812 1074.070312 1062.644531 1086.796875 1063.050781 L 1196.238281 1066.550781 C 1208.96875 1066.957031 1218.957031 1077.605469 1218.546875 1090.335938 C 1218.140625 1103.0625 1207.492188 1113.050781 1194.765625 1112.644531 L 1085.324219 1109.144531 C 1072.59375 1108.738281 1062.605469 1098.089844 1063.011719 1085.359375 Z M 1063.011719 1085.359375 " clip-rule="nonzero"/></clipPath><clipPath id="014a7456ab"><path d="M 0 0 L 156 0 L 156 50 L 0 50 Z M 0 0 " clip-rule="nonzero"/></clipPath><clipPath id="2679d6ac85"><path d="M -0.722656 45.410156 L 0.75 -0.6875 L 156.324219 4.289062 L 154.847656 50.382812 Z M -0.722656 45.410156 " clip-rule="nonzero"/></clipPath><clipPath id="32cd9206af"><path d="M 0.0117188 22.359375 C 0.421875 9.632812 11.070312 -0.355469 23.796875 0.0507812 L 133.238281 3.550781 C 145.96875 3.957031 155.957031 14.605469 155.546875 27.335938 C 155.140625 40.0625 144.492188 50.050781 131.765625 49.644531 L 22.324219 46.144531 C 9.59375 45.738281 -0.394531 35.089844 0.0117188 22.359375 Z M 0.0117188 22.359375 " clip-rule="nonzero"/></clipPath><clipPath id="ac3ad8d15a"><rect x="0" width="156" y="0" height="50"/></clipPath></defs><g clip-path="url(#3769773477)"><path fill="#ffffff" d="M 0.5 0 L 2249.5 0 L 2249.5 2249 L 0.5 2249 Z M 0.5 0 " fill-opacity="1" fill-rule="nonzero"/><path fill="#ffffff" d="M 0.5 0 L 2249.5 0 L 2249.5 2249 L 0.5 2249 Z M 0.5 0 " fill-opacity="1" fill-rule="nonzero"/></g><g clip-path="url(#48bf5ca19d)"><path fill="#282829" d="M 305.007812 380.289062 L 548.195312 380.289062 C 570.597656 380.289062 589.738281 394.246094 597.203125 413.792969 L 918.109375 1176.25 L 1661.671875 1176.25 L 1661.671875 1280.71875 L 883.101562 1280.71875 C 862.796875 1280.71875 843.195312 1268.855469 834.792969 1248.847656 L 513.417969 484.757812 L 305.007812 484.757812 Z M 305.007812 380.289062 " fill-opacity="1" fill-rule="nonzero"/></g><path fill="#ff0000" d="M 1462.359375 753.722656 L 1351.035156 753.722656 L 1311.832031 858.425781 L 1255.113281 1009.195312 L 1215.910156 1113.664062 L 1037.367188 1113.664062 C 1049.039062 1104.121094 1056.742188 1089.464844 1056.742188 1073.175781 C 1056.742188 1044.558594 1033.167969 1021.058594 1004.222656 1021.058594 L 918.808594 1021.058594 C 889.871094 1021.058594 866.296875 997.558594 866.296875 968.707031 C 866.296875 940.09375 889.871094 916.59375 918.808594 916.59375 L 1000.492188 916.59375 C 1029.199219 916.59375 1052.769531 893.09375 1052.769531 864.242188 C 1052.769531 835.394531 1029.199219 811.890625 1000.492188 811.890625 L 855.789062 811.890625 C 827.09375 811.890625 803.511719 788.390625 803.511719 759.773438 C 803.511719 730.921875 827.089844 707.421875 855.789062 707.421875 L 1088.011719 707.421875 C 1116.949219 707.421875 1140.523438 683.921875 1140.523438 655.304688 C 1140.523438 626.453125 1116.949219 602.953125 1088.011719 602.953125 L 826.152344 602.953125 C 797.445312 602.953125 773.875 579.453125 773.875 550.835938 C 773.875 521.984375 797.445312 498.484375 826.152344 498.484375 L 1815.46875 498.484375 C 1844.40625 498.484375 1867.980469 521.984375 1867.980469 550.835938 C 1867.980469 558.746094 1866.109375 566.425781 1862.84375 573.402344 L 1794.921875 753.722656 L 1755.71875 858.425781 L 1311.828125 858.425781 L 1351.03125 753.722656 L 1407.507812 602.953125 L 1446.953125 498.484375 L 1407.742188 602.953125 L 1740.074219 602.953125 L 1683.363281 753.722656 Z M 1462.359375 753.722656 " fill-opacity="1" fill-rule="evenodd"/><path fill="#282829" d="M 1587.6875 1009.191406 L 1366.675781 1009.191406 L 1327.230469 1113.660156 L 1623.628906 1113.660156 L 1623.628906 1113.429688 C 1644.867188 1113.429688 1664.703125 1100.628906 1672.640625 1079.6875 L 1716.519531 962.886719 L 1604.957031 962.886719 Z M 1587.6875 1009.191406 " fill-opacity="1" fill-rule="evenodd"/><g clip-path="url(#db2e4aec59)"><path fill="#282829" d="M 1028.03125 1327.71875 C 1066.542969 1327.71875 1097.578125 1358.660156 1097.578125 1397.054688 C 1097.578125 1435.207031 1066.542969 1466.152344 1028.03125 1466.152344 C 989.761719 1466.152344 958.71875 1435.207031 958.71875 1397.054688 C 958.71875 1358.660156 989.761719 1327.71875 1028.03125 1327.71875 Z M 1028.03125 1327.71875 " fill-opacity="1" fill-rule="evenodd"/></g><g clip-path="url(#02fa469396)"><path fill="#282829" d="M 1477.300781 1327.71875 C 1515.808594 1327.71875 1546.84375 1358.660156 1546.84375 1397.054688 C 1546.84375 1435.207031 1515.808594 1466.152344 1477.300781 1466.152344 C 1439.019531 1466.152344 1407.984375 1435.207031 1407.984375 1397.054688 C 1407.984375 1358.660156 1439.019531 1327.71875 1477.300781 1327.71875 Z M 1477.300781 1327.71875 " fill-opacity="1" fill-rule="evenodd"/></g><g transform="matrix(1, 0, 0, 1, 297, 1467)"><g clip-path="url(#ca761d0119)"><g fill="#ff0000" fill-opacity="1"><g transform="translate(2.301924, 244.105274)"><g><path d="M 245.3125 -179.421875 L 209.671875 0 L 170.71875 0 L 191.734375 -106.625 L 123.296875 -18.96875 L 104.84375 -18.96875 L 67.921875 -107.65625 L 46.390625 0 L 7.4375 0 L 43.3125 -179.421875 L 77.15625 -179.421875 L 122.015625 -67.671875 L 209.671875 -179.421875 Z M 245.3125 -179.421875 "/></g></g></g><g fill="#ff0000" fill-opacity="1"><g transform="translate(239.401017, 244.105274)"><g><path d="M 172.25 -137.90625 L 144.828125 0 L 106.890625 0 L 109.453125 -13.578125 C 98.003906 -3.160156 83.90625 2.046875 67.15625 2.046875 C 56.394531 2.046875 46.484375 -0.425781 37.421875 -5.375 C 28.367188 -10.332031 21.148438 -17.46875 15.765625 -26.78125 C 10.378906 -36.09375 7.6875 -47.070312 7.6875 -59.71875 C 7.6875 -74.925781 11.0625 -88.640625 17.8125 -100.859375 C 24.5625 -113.078125 33.742188 -122.644531 45.359375 -129.5625 C 56.984375 -136.488281 69.800781 -139.953125 83.8125 -139.953125 C 105.007812 -139.953125 119.960938 -133.03125 128.671875 -119.1875 L 132.265625 -137.90625 Z M 79.46875 -31.015625 C 87.320312 -31.015625 94.320312 -32.9375 100.46875 -36.78125 C 106.625 -40.625 111.410156 -45.960938 114.828125 -52.796875 C 118.253906 -59.640625 119.96875 -67.503906 119.96875 -76.390625 C 119.96875 -85.785156 117.1875 -93.21875 111.625 -98.6875 C 106.070312 -104.15625 98.34375 -106.890625 88.4375 -106.890625 C 80.570312 -106.890625 73.5625 -104.96875 67.40625 -101.125 C 61.257812 -97.28125 56.476562 -91.9375 53.0625 -85.09375 C 49.644531 -78.257812 47.9375 -70.398438 47.9375 -61.515625 C 47.9375 -52.117188 50.710938 -44.6875 56.265625 -39.21875 C 61.816406 -33.75 69.550781 -31.015625 79.46875 -31.015625 Z M 79.46875 -31.015625 "/></g></g></g><g fill="#ff0000" fill-opacity="1"><g transform="translate(408.574047, 244.105274)"><g><path d="M 66.90625 -121.5 C 72.882812 -127.988281 80.101562 -132.6875 88.5625 -135.59375 C 97.019531 -138.5 106.972656 -139.953125 118.421875 -139.953125 L 111.25 -103.046875 C 106.457031 -103.390625 103.378906 -103.5625 102.015625 -103.5625 C 89.878906 -103.5625 80.179688 -100.566406 72.921875 -94.578125 C 65.660156 -88.597656 60.75 -79.285156 58.1875 -66.640625 L 44.859375 0 L 4.875 0 L 32.296875 -137.90625 L 70.234375 -137.90625 Z M 66.90625 -121.5 "/></g></g></g><g fill="#ff0000" fill-opacity="1"><g transform="translate(511.358934, 244.105274)"><g><path d="M 107.65625 -77.921875 L 155.078125 0 L 108.6875 0 L 75.875 -53.578125 L 51.515625 -33.328125 L 44.859375 0 L 4.875 0 L 42.8125 -190.203125 L 82.796875 -190.203125 L 61.515625 -83.8125 L 127.65625 -137.90625 L 179.6875 -137.90625 Z M 107.65625 -77.921875 "/></g></g></g><g fill="#ff0000" fill-opacity="1"><g transform="translate(668.997371, 244.105274)"><g><path d="M 154.5625 -79.203125 C 154.5625 -72.878906 153.796875 -65.875 152.265625 -58.1875 L 46.65625 -58.1875 C 48.019531 -39.382812 59.894531 -29.984375 82.28125 -29.984375 C 89.289062 -29.984375 96 -31.09375 102.40625 -33.3125 C 108.8125 -35.539062 114.40625 -38.707031 119.1875 -42.8125 L 135.859375 -16.40625 C 128.160156 -10.25 119.351562 -5.632812 109.4375 -2.5625 C 99.53125 0.507812 89.113281 2.046875 78.1875 2.046875 C 64 2.046875 51.5625 -0.472656 40.875 -5.515625 C 30.195312 -10.554688 21.992188 -17.773438 16.265625 -27.171875 C 10.546875 -36.566406 7.6875 -47.414062 7.6875 -59.71875 C 7.6875 -74.925781 11.144531 -88.640625 18.0625 -100.859375 C 24.988281 -113.078125 34.601562 -122.644531 46.90625 -129.5625 C 59.207031 -136.488281 73.222656 -139.953125 88.953125 -139.953125 C 102.273438 -139.953125 113.847656 -137.472656 123.671875 -132.515625 C 133.503906 -127.566406 141.109375 -120.476562 146.484375 -111.25 C 151.867188 -102.019531 154.5625 -91.335938 154.5625 -79.203125 Z M 87.15625 -109.96875 C 77.75 -109.96875 69.800781 -107.445312 63.3125 -102.40625 C 56.820312 -97.363281 52.207031 -90.398438 49.46875 -81.515625 L 117.90625 -81.515625 C 117.90625 -90.398438 115.128906 -97.363281 109.578125 -102.40625 C 104.023438 -107.445312 96.550781 -109.96875 87.15625 -109.96875 Z M 87.15625 -109.96875 "/></g></g></g><g fill="#ff0000" fill-opacity="1"><g transform="translate(822.278252, 244.105274)"><g><path d="M 59.21875 -48.703125 C 58.875 -47.335938 58.703125 -45.457031 58.703125 -43.0625 C 58.703125 -34.175781 63.570312 -29.734375 73.3125 -29.734375 C 78.601562 -29.734375 83.984375 -31.359375 89.453125 -34.609375 L 95.359375 -6.15625 C 86.472656 -0.6875 75.019531 2.046875 61 2.046875 C 48.019531 2.046875 37.597656 -1.367188 29.734375 -8.203125 C 21.867188 -15.035156 17.9375 -24.4375 17.9375 -36.40625 C 17.9375 -39.820312 18.363281 -43.835938 19.21875 -48.453125 L 30.25 -104.0625 L 8.96875 -104.0625 L 15.125 -134.828125 L 36.40625 -134.828125 L 43.0625 -168.40625 L 83.046875 -168.40625 L 76.390625 -134.828125 L 110.734375 -134.828125 L 104.578125 -104.0625 L 70.234375 -104.0625 Z M 59.21875 -48.703125 "/></g></g></g><g fill="#dc2803" fill-opacity="1"><g transform="translate(926.113669, 244.105274)"><g/></g></g><g fill="#000000" fill-opacity="1"><g transform="translate(991.014486, 244.105274)"><g><path d="M 245.3125 -179.421875 L 209.671875 0 L 170.71875 0 L 191.734375 -106.625 L 123.296875 -18.96875 L 104.84375 -18.96875 L 67.921875 -107.65625 L 46.390625 0 L 7.4375 0 L 43.3125 -179.421875 L 77.15625 -179.421875 L 122.015625 -67.671875 L 209.671875 -179.421875 Z M 245.3125 -179.421875 "/></g></g></g><g fill="#000000" fill-opacity="1"><g transform="translate(1228.113578, 244.105274)"><g><path d="M 77.921875 -146.109375 L 70.234375 -107.140625 L 153.546875 -107.140625 L 147.125 -74.84375 L 63.5625 -74.84375 L 55.359375 -33.328125 L 153.28125 -33.328125 L 146.359375 0 L 7.4375 0 L 43.3125 -179.421875 L 178.921875 -179.421875 L 172 -146.109375 Z M 77.921875 -146.109375 "/></g></g></g><g fill="#000000" fill-opacity="1"><g transform="translate(1392.416412, 244.105274)"><g><path d="M 185.0625 0 L -16.15625 0 L 99.71875 -179.421875 L 140.71875 -179.421875 Z M 47.421875 -33.828125 L 137.90625 -33.828125 L 113.546875 -140.21875 Z M 47.421875 -33.828125 "/></g></g></g><g fill="#000000" fill-opacity="1"><g transform="translate(1581.082635, 244.105274)"><g/></g></g></g></g><g clip-path="url(#7863535e1b)"><g clip-path="url(#635ba7f562)"><g transform="matrix(1, 0, 0, 1, 1683, 1606)"><g clip-path="url(#b56c5258f1)"><g clip-path="url(#80f7589413)"><g clip-path="url(#851b848cd0)"><path fill="#ffffff" d="M 0.839844 164.386719 L 103.460938 0.175781 L 123.683594 12.8125 L 21.0625 177.023438 Z M 0.839844 164.386719 " fill-opacity="1" fill-rule="nonzero"/></g></g></g></g></g></g><g transform="matrix(1, 0, 0, 1, 308, 1778)"><g clip-path="url(#7614a13b99)"><g fill="#000000" fill-opacity="1"><g transform="translate(13.964566, 71.792522)"><g><path d="M -4.84375 0 L 24.53125 -49.8125 L 38.1875 -49.8125 L 46.46875 0 L 34.15625 0 L 32.96875 -8.875 L 13.953125 -8.875 L 9.03125 0 Z M 19.015625 -18.421875 L 31.84375 -18.421875 L 29.453125 -37.359375 Z M 19.015625 -18.421875 "/></g></g></g><g fill="#000000" fill-opacity="1"><g transform="translate(71.27013, 71.792522)"><g/></g></g><g fill="#000000" fill-opacity="1"><g transform="translate(100.409793, 71.792522)"><g><path d="M -1.71875 0 L 8.875 -49.8125 L 30.796875 -49.8125 C 33.734375 -49.8125 36.441406 -49.515625 38.921875 -48.921875 C 41.410156 -48.328125 43.410156 -47.257812 44.921875 -45.71875 C 46.441406 -44.175781 47.203125 -41.960938 47.203125 -39.078125 C 47.203125 -36.296875 46.492188 -33.796875 45.078125 -31.578125 C 43.660156 -29.367188 41.632812 -27.664062 39 -26.46875 C 40.738281 -25.675781 42.128906 -24.519531 43.171875 -23 C 44.222656 -21.488281 44.75 -19.515625 44.75 -17.078125 C 44.75 -13.097656 43.664062 -9.851562 41.5 -7.34375 C 39.34375 -4.832031 36.472656 -2.976562 32.890625 -1.78125 C 29.304688 -0.59375 25.378906 0 21.109375 0 Z M 16.703125 -30.125 L 27.078125 -30.125 C 29.265625 -30.125 31.066406 -30.660156 32.484375 -31.734375 C 33.898438 -32.804688 34.609375 -34.257812 34.609375 -36.09375 C 34.609375 -37.332031 34.160156 -38.328125 33.265625 -39.078125 C 32.367188 -39.828125 31 -40.203125 29.15625 -40.203125 L 18.875 -40.203125 Z M 12.375 -9.765625 L 23.34375 -9.765625 C 25.976562 -9.765625 28.128906 -10.421875 29.796875 -11.734375 C 31.460938 -13.054688 32.296875 -14.664062 32.296875 -16.5625 C 32.296875 -18 31.671875 -19.101562 30.421875 -19.875 C 29.179688 -20.644531 27.46875 -21.03125 25.28125 -21.03125 L 14.765625 -21.03125 Z M 12.375 -9.765625 "/></g></g></g><g fill="#000000" fill-opacity="1"><g transform="translate(153.617144, 71.792522)"><g><path d="M -2.609375 0 L -0.671875 -9.328125 C 5.640625 -12.554688 11.191406 -15.734375 15.984375 -18.859375 C 20.785156 -21.992188 24.539062 -25.050781 27.25 -28.03125 C 29.96875 -31.019531 31.328125 -33.859375 31.328125 -36.546875 C 31.328125 -38.429688 30.691406 -39.867188 29.421875 -40.859375 C 28.148438 -41.859375 26.644531 -42.359375 24.90625 -42.359375 C 23.269531 -42.359375 21.59375 -41.882812 19.875 -40.9375 C 18.15625 -40 16.703125 -38.507812 15.515625 -36.46875 L 6.046875 -40.203125 C 7.378906 -42.585938 9.128906 -44.550781 11.296875 -46.09375 C 13.460938 -47.632812 15.835938 -48.789062 18.421875 -49.5625 C 21.003906 -50.332031 23.566406 -50.71875 26.109375 -50.71875 C 29.085938 -50.71875 31.867188 -50.21875 34.453125 -49.21875 C 37.035156 -48.226562 39.125 -46.75 40.71875 -44.78125 C 42.3125 -42.820312 43.109375 -40.375 43.109375 -37.4375 C 43.109375 -34.707031 42.375 -32.046875 40.90625 -29.453125 C 39.4375 -26.867188 37.421875 -24.394531 34.859375 -22.03125 C 32.304688 -19.675781 29.347656 -17.441406 25.984375 -15.328125 C 22.628906 -13.210938 19.039062 -11.210938 15.21875 -9.328125 L 37.59375 -9.328125 L 35.640625 0 Z M -2.609375 0 "/></g></g></g><g fill="#000000" fill-opacity="1"><g transform="translate(202.651769, 71.792522)"><g><path d="M -1.71875 0 L 8.875 -49.8125 L 30.796875 -49.8125 C 33.734375 -49.8125 36.441406 -49.515625 38.921875 -48.921875 C 41.410156 -48.328125 43.410156 -47.257812 44.921875 -45.71875 C 46.441406 -44.175781 47.203125 -41.960938 47.203125 -39.078125 C 47.203125 -36.296875 46.492188 -33.796875 45.078125 -31.578125 C 43.660156 -29.367188 41.632812 -27.664062 39 -26.46875 C 40.738281 -25.675781 42.128906 -24.519531 43.171875 -23 C 44.222656 -21.488281 44.75 -19.515625 44.75 -17.078125 C 44.75 -13.097656 43.664062 -9.851562 41.5 -7.34375 C 39.34375 -4.832031 36.472656 -2.976562 32.890625 -1.78125 C 29.304688 -0.59375 25.378906 0 21.109375 0 Z M 16.703125 -30.125 L 27.078125 -30.125 C 29.265625 -30.125 31.066406 -30.660156 32.484375 -31.734375 C 33.898438 -32.804688 34.609375 -34.257812 34.609375 -36.09375 C 34.609375 -37.332031 34.160156 -38.328125 33.265625 -39.078125 C 32.367188 -39.828125 31 -40.203125 29.15625 -40.203125 L 18.875 -40.203125 Z M 12.375 -9.765625 L 23.34375 -9.765625 C 25.976562 -9.765625 28.128906 -10.421875 29.796875 -11.734375 C 31.460938 -13.054688 32.296875 -14.664062 32.296875 -16.5625 C 32.296875 -18 31.671875 -19.101562 30.421875 -19.875 C 29.179688 -20.644531 27.46875 -21.03125 25.28125 -21.03125 L 14.765625 -21.03125 Z M 12.375 -9.765625 "/></g></g></g><g fill="#000000" fill-opacity="1"><g transform="translate(255.85912, 71.792522)"><g/></g></g><g fill="#000000" fill-opacity="1"><g transform="translate(284.998783, 71.792522)"><g><path d="M -1.71875 0 L 8.875 -49.8125 L 26.546875 -49.8125 L 29.390625 -14.390625 L 47.359375 -49.8125 L 65.625 -49.8125 L 54.96875 0 L 43.328125 0 L 51.453125 -38.03125 L 31.765625 0 L 21.921875 0 L 18.421875 -39.75 L 10 0 Z M -1.71875 0 "/></g></g></g><g fill="#000000" fill-opacity="1"><g transform="translate(354.226421, 71.792522)"><g><path d="M -4.84375 0 L 24.53125 -49.8125 L 38.1875 -49.8125 L 46.46875 0 L 34.15625 0 L 32.96875 -8.875 L 13.953125 -8.875 L 9.03125 0 Z M 19.015625 -18.421875 L 31.84375 -18.421875 L 29.453125 -37.359375 Z M 19.015625 -18.421875 "/></g></g></g><g fill="#000000" fill-opacity="1"><g transform="translate(411.531985, 71.792522)"><g><path d="M -1.71875 0 L 8.875 -49.8125 L 27.515625 -49.8125 C 33.585938 -49.8125 38.347656 -48.804688 41.796875 -46.796875 C 45.253906 -44.785156 46.984375 -41.34375 46.984375 -36.46875 C 46.984375 -31.394531 45.628906 -27.578125 42.921875 -25.015625 C 40.210938 -22.460938 36.347656 -20.8125 31.328125 -20.0625 L 41.546875 0 L 29.15625 0 L 19.609375 -18.796875 L 14.3125 -18.796875 L 10.296875 0 Z M 16.40625 -28.640625 L 24.09375 -28.640625 C 26.03125 -28.640625 27.78125 -28.800781 29.34375 -29.125 C 30.914062 -29.445312 32.171875 -30.09375 33.109375 -31.0625 C 34.054688 -32.03125 34.53125 -33.4375 34.53125 -35.28125 C 34.53125 -37.164062 33.722656 -38.40625 32.109375 -39 C 30.492188 -39.601562 28.390625 -39.90625 25.796875 -39.90625 L 18.796875 -39.90625 Z M 16.40625 -28.640625 "/></g></g></g><g fill="#000000" fill-opacity="1"><g transform="translate(464.813849, 71.792522)"><g><path d="M -1.71875 0 L 8.875 -49.8125 L 20.8125 -49.8125 L 17.078125 -31.765625 L 37.359375 -49.8125 L 53.328125 -49.8125 L 28.640625 -28.109375 L 43.03125 0 L 30.65625 0 L 20.140625 -20.65625 L 13.421875 -14.6875 L 10.296875 0 Z M -1.71875 0 "/></g></g></g><g fill="#000000" fill-opacity="1"><g transform="translate(519.064381, 71.792522)"><g><path d="M -1.71875 0 L 8.875 -49.8125 L 47.5 -49.8125 L 45.265625 -39.453125 L 18.71875 -39.453125 L 16.859375 -30.796875 L 33.03125 -30.796875 L 30.875 -20.4375 L 14.6875 -20.4375 L 12.53125 -10.359375 L 39.078125 -10.359375 L 36.921875 0 Z M -1.71875 0 "/></g></g></g><g fill="#000000" fill-opacity="1"><g transform="translate(567.726441, 71.792522)"><g><path d="M 11.78125 0 L 20.140625 -39.453125 L 4.25 -39.453125 L 6.484375 -49.8125 L 50.1875 -49.8125 L 48.03125 -39.453125 L 32.0625 -39.453125 L 23.796875 0 Z M 11.78125 0 "/></g></g></g><g fill="#000000" fill-opacity="1"><g transform="translate(618.996455, 71.792522)"><g><path d="M -1.71875 0 L 8.875 -49.8125 L 28.265625 -49.8125 C 33.085938 -49.8125 36.898438 -49.273438 39.703125 -48.203125 C 42.515625 -47.140625 44.53125 -45.613281 45.75 -43.625 C 46.96875 -41.632812 47.578125 -39.273438 47.578125 -36.546875 C 47.578125 -32.015625 46.53125 -28.332031 44.4375 -25.5 C 42.351562 -22.664062 39.445312 -20.585938 35.71875 -19.265625 C 31.988281 -17.953125 27.640625 -17.296875 22.671875 -17.296875 L 13.953125 -17.296875 L 10.296875 0 Z M 16.109375 -27.078125 L 23.796875 -27.078125 C 27.222656 -27.078125 29.953125 -27.695312 31.984375 -28.9375 C 34.023438 -30.175781 35.046875 -32.164062 35.046875 -34.90625 C 35.046875 -38.238281 32.1875 -39.90625 26.46875 -39.90625 L 18.796875 -39.90625 Z M 16.109375 -27.078125 "/></g></g></g><g fill="#000000" fill-opacity="1"><g transform="translate(671.086111, 71.792522)"><g><path d="M -1.71875 0 L 8.875 -49.8125 L 20.8125 -49.8125 L 12.53125 -10.359375 L 36.390625 -10.359375 L 34.15625 0 Z M -1.71875 0 "/></g></g></g><g fill="#000000" fill-opacity="1"><g transform="translate(718.930566, 71.792522)"><g><path d="M -4.84375 0 L 24.53125 -49.8125 L 38.1875 -49.8125 L 46.46875 0 L 34.15625 0 L 32.96875 -8.875 L 13.953125 -8.875 L 9.03125 0 Z M 19.015625 -18.421875 L 31.84375 -18.421875 L 29.453125 -37.359375 Z M 19.015625 -18.421875 "/></g></g></g><g fill="#000000" fill-opacity="1"><g transform="translate(773.476531, 71.792522)"><g><path d="M 24.015625 0.890625 C 19.941406 0.890625 16.257812 0.132812 12.96875 -1.375 C 9.6875 -2.894531 7.101562 -5.179688 5.21875 -8.234375 C 3.332031 -11.296875 2.390625 -15.140625 2.390625 -19.765625 C 2.390625 -24.191406 3.054688 -28.28125 4.390625 -32.03125 C 5.734375 -35.78125 7.648438 -39.046875 10.140625 -41.828125 C 12.628906 -44.617188 15.648438 -46.796875 19.203125 -48.359375 C 22.753906 -49.929688 26.71875 -50.71875 31.09375 -50.71875 C 33.6875 -50.71875 36.257812 -50.351562 38.8125 -49.625 C 41.375 -48.90625 43.648438 -47.703125 45.640625 -46.015625 C 47.628906 -44.328125 49.097656 -42.039062 50.046875 -39.15625 L 39.15625 -35.5 C 38.257812 -37.582031 37.003906 -39.019531 35.390625 -39.8125 C 33.773438 -40.613281 31.945312 -41.015625 29.90625 -41.015625 C 27.570312 -41.015625 25.484375 -40.453125 23.640625 -39.328125 C 21.796875 -38.210938 20.226562 -36.710938 18.9375 -34.828125 C 17.644531 -32.941406 16.648438 -30.816406 15.953125 -28.453125 C 15.265625 -26.085938 14.921875 -23.640625 14.921875 -21.109375 C 14.921875 -17.078125 15.875 -14.054688 17.78125 -12.046875 C 19.695312 -10.035156 22.171875 -9.003906 25.203125 -8.953125 C 27.097656 -8.953125 28.9375 -9.347656 30.71875 -10.140625 C 32.507812 -10.929688 34.203125 -12.375 35.796875 -14.46875 L 45.9375 -10.515625 C 43.65625 -6.984375 40.695312 -4.195312 37.0625 -2.15625 C 33.4375 -0.125 29.085938 0.890625 24.015625 0.890625 Z M 24.015625 0.890625 "/></g></g></g><g fill="#000000" fill-opacity="1"><g transform="translate(828.919271, 71.792522)"><g><path d="M -1.71875 0 L 8.875 -49.8125 L 47.5 -49.8125 L 45.265625 -39.453125 L 18.71875 -39.453125 L 16.859375 -30.796875 L 33.03125 -30.796875 L 30.875 -20.4375 L 14.6875 -20.4375 L 12.53125 -10.359375 L 39.078125 -10.359375 L 36.921875 0 Z M -1.71875 0 "/></g></g></g><g fill="#000000" fill-opacity="1"><g transform="translate(877.581331, 71.792522)"><g/></g></g><g fill="#000000" fill-opacity="1"><g transform="translate(906.720994, 71.792522)"><g><path d="M -1.71875 0 L 8.875 -49.8125 L 30.796875 -49.8125 C 33.734375 -49.8125 36.441406 -49.515625 38.921875 -48.921875 C 41.410156 -48.328125 43.410156 -47.257812 44.921875 -45.71875 C 46.441406 -44.175781 47.203125 -41.960938 47.203125 -39.078125 C 47.203125 -36.296875 46.492188 -33.796875 45.078125 -31.578125 C 43.660156 -29.367188 41.632812 -27.664062 39 -26.46875 C 40.738281 -25.675781 42.128906 -24.519531 43.171875 -23 C 44.222656 -21.488281 44.75 -19.515625 44.75 -17.078125 C 44.75 -13.097656 43.664062 -9.851562 41.5 -7.34375 C 39.34375 -4.832031 36.472656 -2.976562 32.890625 -1.78125 C 29.304688 -0.59375 25.378906 0 21.109375 0 Z M 16.703125 -30.125 L 27.078125 -30.125 C 29.265625 -30.125 31.066406 -30.660156 32.484375 -31.734375 C 33.898438 -32.804688 34.609375 -34.257812 34.609375 -36.09375 C 34.609375 -37.332031 34.160156 -38.328125 33.265625 -39.078125 C 32.367188 -39.828125 31 -40.203125 29.15625 -40.203125 L 18.875 -40.203125 Z M 12.375 -9.765625 L 23.34375 -9.765625 C 25.976562 -9.765625 28.128906 -10.421875 29.796875 -11.734375 C 31.460938 -13.054688 32.296875 -14.664062 32.296875 -16.5625 C 32.296875 -18 31.671875 -19.101562 30.421875 -19.875 C 29.179688 -20.644531 27.46875 -21.03125 25.28125 -21.03125 L 14.765625 -21.03125 Z M 12.375 -9.765625 "/></g></g></g><g fill="#000000" fill-opacity="1"><g transform="translate(957.839945, 71.792522)"><g><path d="M 14.25 0 L 18.046875 -17.96875 L 6.109375 -49.8125 L 18.875 -49.8125 L 25.28125 -29.15625 L 41.609375 -49.8125 L 56.828125 -49.8125 L 30.125 -17.96875 L 26.40625 0 Z M 14.25 0 "/></g></g></g><g fill="#000000" fill-opacity="1"><g transform="translate(1015.294535, 71.792522)"><g/></g></g><g fill="#ff0000" fill-opacity="1"><g transform="translate(1044.478901, 71.792522)"><g><path d="M 11.78125 0 L 20.140625 -39.453125 L 4.25 -39.453125 L 6.484375 -49.8125 L 50.1875 -49.8125 L 48.03125 -39.453125 L 32.0625 -39.453125 L 23.796875 0 Z M 11.78125 0 "/></g></g></g><g fill="#ff0000" fill-opacity="1"><g transform="translate(1095.748915, 71.792522)"><g><path d="M -1.71875 0 L 8.875 -49.8125 L 47.5 -49.8125 L 45.265625 -39.453125 L 18.71875 -39.453125 L 16.859375 -30.796875 L 33.03125 -30.796875 L 30.875 -20.4375 L 14.6875 -20.4375 L 12.53125 -10.359375 L 39.078125 -10.359375 L 36.921875 0 Z M -1.71875 0 "/></g></g></g><g fill="#ff0000" fill-opacity="1"><g transform="translate(1142.993846, 71.792522)"><g><path d="M 24.015625 0.890625 C 19.941406 0.890625 16.257812 0.132812 12.96875 -1.375 C 9.6875 -2.894531 7.101562 -5.179688 5.21875 -8.234375 C 3.332031 -11.296875 2.390625 -15.140625 2.390625 -19.765625 C 2.390625 -24.191406 3.054688 -28.28125 4.390625 -32.03125 C 5.734375 -35.78125 7.648438 -39.046875 10.140625 -41.828125 C 12.628906 -44.617188 15.648438 -46.796875 19.203125 -48.359375 C 22.753906 -49.929688 26.71875 -50.71875 31.09375 -50.71875 C 33.6875 -50.71875 36.257812 -50.351562 38.8125 -49.625 C 41.375 -48.90625 43.648438 -47.703125 45.640625 -46.015625 C 47.628906 -44.328125 49.097656 -42.039062 50.046875 -39.15625 L 39.15625 -35.5 C 38.257812 -37.582031 37.003906 -39.019531 35.390625 -39.8125 C 33.773438 -40.613281 31.945312 -41.015625 29.90625 -41.015625 C 27.570312 -41.015625 25.484375 -40.453125 23.640625 -39.328125 C 21.796875 -38.210938 20.226562 -36.710938 18.9375 -34.828125 C 17.644531 -32.941406 16.648438 -30.816406 15.953125 -28.453125 C 15.265625 -26.085938 14.921875 -23.640625 14.921875 -21.109375 C 14.921875 -17.078125 15.875 -14.054688 17.78125 -12.046875 C 19.695312 -10.035156 22.171875 -9.003906 25.203125 -8.953125 C 27.097656 -8.953125 28.9375 -9.347656 30.71875 -10.140625 C 32.507812 -10.929688 34.203125 -12.375 35.796875 -14.46875 L 45.9375 -10.515625 C 43.65625 -6.984375 40.695312 -4.195312 37.0625 -2.15625 C 33.4375 -0.125 29.085938 0.890625 24.015625 0.890625 Z M 24.015625 0.890625 "/></g></g></g><g fill="#ff0000" fill-opacity="1"><g transform="translate(1198.436586, 71.792522)"><g><path d="M -1.71875 0 L 8.875 -49.8125 L 20.8125 -49.8125 L 16.859375 -30.796875 L 37.4375 -30.796875 L 41.46875 -49.8125 L 53.46875 -49.8125 L 42.875 0 L 30.875 0 L 35.203125 -20.4375 L 14.6875 -20.4375 L 10.296875 0 Z M -1.71875 0 "/></g></g></g><g fill="#ff0000" fill-opacity="1"><g transform="translate(1255.518611, 71.792522)"><g><path d="M 11.78125 0 L 20.140625 -39.453125 L 4.25 -39.453125 L 6.484375 -49.8125 L 50.1875 -49.8125 L 48.03125 -39.453125 L 32.0625 -39.453125 L 23.796875 0 Z M 11.78125 0 "/></g></g></g><g fill="#ff0000" fill-opacity="1"><g transform="translate(1306.788625, 71.792522)"><g><path d="M -1.71875 0 L 8.875 -49.8125 L 27.515625 -49.8125 C 33.585938 -49.8125 38.347656 -48.804688 41.796875 -46.796875 C 45.253906 -44.785156 46.984375 -41.34375 46.984375 -36.46875 C 46.984375 -31.394531 45.628906 -27.578125 42.921875 -25.015625 C 40.210938 -22.460938 36.347656 -20.8125 31.328125 -20.0625 L 41.546875 0 L 29.15625 0 L 19.609375 -18.796875 L 14.3125 -18.796875 L 10.296875 0 Z M 16.40625 -28.640625 L 24.09375 -28.640625 C 26.03125 -28.640625 27.78125 -28.800781 29.34375 -29.125 C 30.914062 -29.445312 32.171875 -30.09375 33.109375 -31.0625 C 34.054688 -32.03125 34.53125 -33.4375 34.53125 -35.28125 C 34.53125 -37.164062 33.722656 -38.40625 32.109375 -39 C 30.492188 -39.601562 28.390625 -39.90625 25.796875 -39.90625 L 18.796875 -39.90625 Z M 16.40625 -28.640625 "/></g></g></g><g fill="#ff0000" fill-opacity="1"><g transform="translate(1358.504188, 71.792522)"><g><path d="M 24.984375 0.890625 C 20.210938 0.890625 16.144531 0.0078125 12.78125 -1.75 C 9.425781 -3.519531 6.851562 -5.984375 5.0625 -9.140625 C 3.28125 -12.296875 2.390625 -15.9375 2.390625 -20.0625 C 2.390625 -24.332031 3.109375 -28.320312 4.546875 -32.03125 C 5.992188 -35.738281 8.035156 -38.992188 10.671875 -41.796875 C 13.304688 -44.609375 16.410156 -46.796875 19.984375 -48.359375 C 23.566406 -49.929688 27.492188 -50.71875 31.765625 -50.71875 C 36.296875 -50.71875 40.265625 -49.894531 43.671875 -48.25 C 47.078125 -46.613281 49.75 -44.203125 51.6875 -41.015625 C 53.625 -37.835938 54.59375 -33.9375 54.59375 -29.3125 C 54.59375 -24.988281 53.859375 -21 52.390625 -17.34375 C 50.921875 -13.6875 48.859375 -10.488281 46.203125 -7.75 C 43.546875 -5.019531 40.410156 -2.894531 36.796875 -1.375 C 33.191406 0.132812 29.253906 0.890625 24.984375 0.890625 Z M 26.03125 -8.796875 C 29.257812 -8.796875 32.066406 -9.703125 34.453125 -11.515625 C 36.835938 -13.335938 38.703125 -15.738281 40.046875 -18.71875 C 41.390625 -21.695312 42.0625 -24.878906 42.0625 -28.265625 C 42.0625 -31.203125 41.523438 -33.601562 40.453125 -35.46875 C 39.390625 -37.332031 38.007812 -38.722656 36.3125 -39.640625 C 34.625 -40.554688 32.8125 -41.015625 30.875 -41.015625 C 28.4375 -41.015625 26.234375 -40.453125 24.265625 -39.328125 C 22.304688 -38.210938 20.628906 -36.710938 19.234375 -34.828125 C 17.847656 -32.941406 16.789062 -30.828125 16.0625 -28.484375 C 15.34375 -26.148438 14.984375 -23.765625 14.984375 -21.328125 C 14.984375 -19.046875 15.394531 -16.957031 16.21875 -15.0625 C 17.039062 -13.175781 18.269531 -11.660156 19.90625 -10.515625 C 21.550781 -9.367188 23.59375 -8.796875 26.03125 -8.796875 Z M 26.03125 -8.796875 "/></g></g></g><g fill="#ff0000" fill-opacity="1"><g transform="translate(1420.653095, 71.792522)"><g><path d="M -1.71875 0 L 8.875 -49.8125 L 23.71875 -49.8125 L 35.640625 -13.640625 L 43.40625 -49.8125 L 54.96875 -49.8125 L 44.375 0 L 29.53125 0 L 17.59375 -36.171875 L 9.921875 0 Z M -1.71875 0 "/></g></g></g><g fill="#ff0000" fill-opacity="1"><g transform="translate(1479.225379, 71.792522)"><g><path d="M -0.96875 0 L 0.96875 -9.25 L 7.828125 -9.25 L 14.546875 -40.578125 L 7.6875 -40.578125 L 9.625 -49.8125 L 35.34375 -49.8125 L 33.34375 -40.578125 L 26.46875 -40.578125 L 19.90625 -9.25 L 26.703125 -9.25 L 24.6875 0 Z M -0.96875 0 "/></g></g></g><g fill="#ff0000" fill-opacity="1"><g transform="translate(1516.633944, 71.792522)"><g><path d="M 24.015625 0.890625 C 19.941406 0.890625 16.257812 0.132812 12.96875 -1.375 C 9.6875 -2.894531 7.101562 -5.179688 5.21875 -8.234375 C 3.332031 -11.296875 2.390625 -15.140625 2.390625 -19.765625 C 2.390625 -24.191406 3.054688 -28.28125 4.390625 -32.03125 C 5.734375 -35.78125 7.648438 -39.046875 10.140625 -41.828125 C 12.628906 -44.617188 15.648438 -46.796875 19.203125 -48.359375 C 22.753906 -49.929688 26.71875 -50.71875 31.09375 -50.71875 C 33.6875 -50.71875 36.257812 -50.351562 38.8125 -49.625 C 41.375 -48.90625 43.648438 -47.703125 45.640625 -46.015625 C 47.628906 -44.328125 49.097656 -42.039062 50.046875 -39.15625 L 39.15625 -35.5 C 38.257812 -37.582031 37.003906 -39.019531 35.390625 -39.8125 C 33.773438 -40.613281 31.945312 -41.015625 29.90625 -41.015625 C 27.570312 -41.015625 25.484375 -40.453125 23.640625 -39.328125 C 21.796875 -38.210938 20.226562 -36.710938 18.9375 -34.828125 C 17.644531 -32.941406 16.648438 -30.816406 15.953125 -28.453125 C 15.265625 -26.085938 14.921875 -23.640625 14.921875 -21.109375 C 14.921875 -17.078125 15.875 -14.054688 17.78125 -12.046875 C 19.695312 -10.035156 22.171875 -9.003906 25.203125 -8.953125 C 27.097656 -8.953125 28.9375 -9.347656 30.71875 -10.140625 C 32.507812 -10.929688 34.203125 -12.375 35.796875 -14.46875 L 45.9375 -10.515625 C 43.65625 -6.984375 40.695312 -4.195312 37.0625 -2.15625 C 33.4375 -0.125 29.085938 0.890625 24.015625 0.890625 Z M 24.015625 0.890625 "/></g></g></g><g fill="#ff0000" fill-opacity="1"><g transform="translate(1572.076684, 71.792522)"><g><path d="M 22.828125 0.890625 C 17.398438 0.890625 12.75 -0.222656 8.875 -2.453125 C 5 -4.691406 2.289062 -7.773438 0.75 -11.703125 L 12.3125 -15.59375 C 12.707031 -13.945312 13.472656 -12.601562 14.609375 -11.5625 C 15.753906 -10.519531 17.109375 -9.75 18.671875 -9.25 C 20.242188 -8.75 21.800781 -8.5 23.34375 -8.5 C 25.53125 -8.5 27.457031 -8.921875 29.125 -9.765625 C 30.789062 -10.609375 31.625 -11.800781 31.625 -13.34375 C 31.625 -14.59375 31.140625 -15.640625 30.171875 -16.484375 C 29.203125 -17.328125 27.90625 -18.046875 26.28125 -18.640625 C 24.664062 -19.242188 22.890625 -19.84375 20.953125 -20.4375 C 19.015625 -21.03125 17.085938 -21.695312 15.171875 -22.4375 C 13.265625 -23.1875 11.5 -24.117188 9.875 -25.234375 C 8.257812 -26.359375 6.96875 -27.738281 6 -29.375 C 5.03125 -31.019531 4.546875 -33.035156 4.546875 -35.421875 C 4.546875 -38.109375 5.128906 -40.40625 6.296875 -42.3125 C 7.460938 -44.226562 9.03125 -45.804688 11 -47.046875 C 12.96875 -48.296875 15.191406 -49.21875 17.671875 -49.8125 C 20.160156 -50.414062 22.75 -50.71875 25.4375 -50.71875 C 27.914062 -50.71875 30.398438 -50.378906 32.890625 -49.703125 C 35.378906 -49.035156 37.703125 -47.90625 39.859375 -46.3125 C 42.023438 -44.71875 43.800781 -42.582031 45.1875 -39.90625 L 33.640625 -36.015625 C 32.992188 -37.753906 31.773438 -39.035156 29.984375 -39.859375 C 28.191406 -40.679688 26.375 -41.09375 24.53125 -41.09375 C 22 -41.09375 20.0625 -40.679688 18.71875 -39.859375 C 17.375 -39.035156 16.703125 -37.976562 16.703125 -36.6875 C 16.703125 -35.34375 17.1875 -34.257812 18.15625 -33.4375 C 19.125 -32.625 20.414062 -31.914062 22.03125 -31.3125 C 23.65625 -30.71875 25.4375 -30.160156 27.375 -29.640625 C 29.3125 -29.117188 31.25 -28.519531 33.1875 -27.84375 C 35.125 -27.175781 36.898438 -26.320312 38.515625 -25.28125 C 40.128906 -24.238281 41.421875 -22.921875 42.390625 -21.328125 C 43.367188 -19.734375 43.859375 -17.742188 43.859375 -15.359375 C 43.859375 -11.785156 42.863281 -8.789062 40.875 -6.375 C 38.882812 -3.96875 36.285156 -2.15625 33.078125 -0.9375 C 29.867188 0.28125 26.453125 0.890625 22.828125 0.890625 Z M 22.828125 0.890625 "/></g></g></g></g></g><path stroke-linecap="butt" transform="matrix(0.749667, 0, 0, 0.749667, 112.94979, 1816.577665)" fill="none" stroke-linejoin="miter" d="M -0.000762613 12.500959 L 234.681628 12.500959 " stroke="#ff0000" stroke-width="25" stroke-opacity="1" stroke-miterlimit="4"/><path stroke-linecap="butt" transform="matrix(0.749667, 0, 0, 0.749667, 1961.118314, 1816.577665)" fill="none" stroke-linejoin="miter" d="M -0.00150296 12.500959 L 234.680888 12.500959 " stroke="#ff0000" stroke-width="25" stroke-opacity="1" stroke-miterlimit="4"/><g clip-path="url(#779b249451)"><g clip-path="url(#ca8cf74c76)"><g transform="matrix(1, 0, 0, 1, 1288, 528)"><g clip-path="url(#a3307a958c)"><g clip-path="url(#205bc76937)"><g clip-path="url(#334f9bff9a)"><path fill="#ff0000" d="M 0.464844 75.570312 L 447.316406 0.851562 L 487.164062 239.171875 L 40.316406 313.890625 Z M 0.464844 75.570312 " fill-opacity="1" fill-rule="nonzero"/></g></g></g></g></g></g><g clip-path="url(#c5a18cbfff)"><g clip-path="url(#569629952c)"><g transform="matrix(1, 0, 0, 1, 1287, 994)"><g clip-path="url(#b80ab69136)"><g clip-path="url(#2e8571761c)"><g clip-path="url(#238130272b)"><path fill="#ffffff" d="M 458.714844 115.609375 L 5.660156 136 L 0.46875 20.597656 L 453.523438 0.207031 Z M 458.714844 115.609375 " fill-opacity="1" fill-rule="nonzero"/></g></g></g></g></g></g><g clip-path="url(#87d7a2a9de)"><g clip-path="url(#1e253f9989)"><g transform="matrix(1, 0, 0, 1, 1521, 889)"><g clip-path="url(#af105b5c81)"><g clip-path="url(#e23ff3c70d)"><g clip-path="url(#ec1440f2c0)"><path fill="#ffffff" d="M 40.042969 0.175781 L 249.101562 57.488281 L 209.765625 200.96875 L 0.707031 143.65625 Z M 40.042969 0.175781 " fill-opacity="1" fill-rule="nonzero"/></g></g></g></g></g></g><g clip-path="url(#77bef7becd)"><g clip-path="url(#d596fdb5c6)"><g transform="matrix(1, 0, 0, 1, 1297, 934)"><g clip-path="url(#6b4a35cc8d)"><g clip-path="url(#09a44ccc32)"><g clip-path="url(#2602aa917b)"><path fill="#ffffff" d="M 31.464844 0.875 L 240.363281 58.144531 L 209.820312 169.554688 L 0.925781 112.289062 Z M 31.464844 0.875 " fill-opacity="1" fill-rule="nonzero"/></g></g></g></g></g></g><path stroke-linecap="round" transform="matrix(0.0628579, -0.747027, 0.747027, 0.0628579, 1612.555116, 1277.14297)" fill="none" stroke-linejoin="miter" d="M 57.001096 57.000172 L 219.729695 57.002426 " stroke="#282829" stroke-width="114" stroke-opacity="1" stroke-miterlimit="4"/><g clip-path="url(#e08dcc5342)"><g clip-path="url(#deafdcefbb)"><g transform="matrix(1, 0, 0, 1, 1307, 685)"><g clip-path="url(#b6ff422684)"><g clip-path="url(#e40ab55a40)"><g clip-path="url(#756892160d)"><path fill="#ffffff" d="M 63.039062 0.371094 L 394.136719 110 L 332.042969 297.527344 L 0.945312 187.894531 Z M 63.039062 0.371094 " fill-opacity="1" fill-rule="nonzero"/></g></g></g></g></g></g><g clip-path="url(#fe824d74c0)"><g clip-path="url(#a125607fd6)"><g transform="matrix(1, 0, 0, 1, 1436, 780)"><g clip-path="url(#4a7f522d11)"><g clip-path="url(#096e1ba778)"><g clip-path="url(#37950b4335)"><path fill="#ff0000" d="M 0.101562 150.636719 L 262.675781 0.703125 L 276.285156 24.539062 L 13.714844 174.472656 Z M 0.101562 150.636719 " fill-opacity="1" fill-rule="nonzero"/></g></g></g></g></g></g><g clip-path="url(#da678ada02)"><g clip-path="url(#21f9ee93d3)"><g transform="matrix(1, 0, 0, 1, 1338, 661)"><g clip-path="url(#a6ad8933f0)"><g clip-path="url(#7a0785b2e2)"><g clip-path="url(#03712abdfe)"><path fill="#ff0000" d="M 106.582031 293.46875 L 0.492188 10.328125 L 26.195312 0.695312 L 132.285156 283.835938 Z M 106.582031 293.46875 " fill-opacity="1" fill-rule="nonzero"/></g></g></g></g></g></g><g clip-path="url(#b964c81e8a)"><g clip-path="url(#dd7d7f792c)"><g clip-path="url(#db7009d90e)"><g transform="matrix(1, 0, 0, 1, 1314, 600)"><g clip-path="url(#4aae4ed287)"><g clip-path="url(#4b828a2b7f)"><g clip-path="url(#d45232c54b)"><g clip-path="url(#ba7572564a)"><path fill="#ff0000" d="M -2.105469 -1.410156 L 419.785156 92.722656 L 350.339844 403.976562 L -71.550781 309.84375 Z M -2.105469 -1.410156 " fill-opacity="1" fill-rule="nonzero"/></g></g></g></g></g></g></g></g><g clip-path="url(#8a23b91782)"><g clip-path="url(#9443abb442)"><g clip-path="url(#7f277b95a1)"><g transform="matrix(1, 0, 0, 1, 1421, 519)"><g clip-path="url(#0bf801f88f)"><g clip-path="url(#e4742b1b83)"><g clip-path="url(#4a3f52c7ba)"><g clip-path="url(#2c3783fdbc)"><path fill="#ff0000" d="M -2.527344 -1.25 L 419.363281 92.882812 L 349.917969 404.132812 L -71.976562 310 Z M -2.527344 -1.25 " fill-opacity="1" fill-rule="nonzero"/></g></g></g></g></g></g></g></g><g clip-path="url(#53b15e8142)"><g clip-path="url(#3800a96f76)"><g clip-path="url(#e5d8fe8c9a)"><g transform="matrix(1, 0, 0, 1, 1649, 742)"><g clip-path="url(#c57438654c)"><g clip-path="url(#42bbc47acb)"><g clip-path="url(#6f8e7f9f4b)"><g clip-path="url(#3e993cce6b)"><path fill="#ff0000" d="M -10.785156 214.242188 L 68.253906 -10.941406 L 143.414062 15.441406 L 64.375 240.625 Z M -10.785156 214.242188 " fill-opacity="1" fill-rule="nonzero"/></g></g></g></g></g></g></g></g><g clip-path="url(#426c8d4991)"><g clip-path="url(#6c954564cf)"><g clip-path="url(#a8564a3fb9)"><g transform="matrix(1, 0, 0, 1, 1345, 702)"><g clip-path="url(#b7f425eea6)"><g clip-path="url(#e2e4901e09)"><g clip-path="url(#eded8fd930)"><g clip-path="url(#95bea1718a)"><path fill="#ff0000" d="M -23.550781 -14.519531 L 389.828125 77.714844 L 320.382812 388.964844 L -93 296.730469 Z M -23.550781 -14.519531 " fill-opacity="1" fill-rule="nonzero"/></g></g></g></g></g></g></g></g><g clip-path="url(#16e8b395f7)"><g clip-path="url(#7d9a5fed90)"><g clip-path="url(#bf2445c5eb)"><g transform="matrix(1, 0, 0, 1, 1063, 1063)"><g clip-path="url(#ac3ad8d15a)"><g clip-path="url(#014a7456ab)"><g clip-path="url(#2679d6ac85)"><g clip-path="url(#32cd9206af)"><path fill="#ff0000" d="M -0.722656 45.410156 L 0.75 -0.6875 L 156.324219 4.289062 L 154.847656 50.382812 Z M -0.722656 45.410156 " fill-opacity="1" fill-rule="nonzero"/></g></g></g></g></g></g></g></g></svg>